<svg xmlns="http://www.w3.org/2000/svg" viewBox="0 0 360.54 408.92"><defs><style>.cls-1{fill:#f2f2f2;opacity:0.35;}</style></defs><title>shell-icon-bg</title><g id="Layer_2" data-name="Layer 2"><g id="Layer_1-2" data-name="Layer 1"><path class="cls-1" d="M360.17,177.49c-3-50.08-25.38-119.93-115.33-168.28L227.7,0,218,16.88,157,123.26q-1.51-.41-3-.78h-.07a119,119,0,0,0-27.78-3.26,120.88,120.88,0,0,0-46.5,9.22,123.83,123.83,0,0,0-17.26,8.8,119,119,0,0,0-16,11.66,124.35,124.35,0,0,0-13.83,14c-.93,1.08-1.71,2.07-2.39,2.95l-.64.81-.08.11-.08.11-1.3,1.67-.28.37-.27.38-1.37,1.94,0,.07,0,.07-1.35,2-.09.13-.09.13-1.07,1.6,0,0,0,0-1.68,2.54-.36.55-.33.57L18.71,183v0l-.27.47c-.62,1.08-1.38,2.42-2.13,4-1.16,2.29-2.59,5.09-3.88,8.11A145.25,145.25,0,0,0,6,212.78L6,213l-.05.18A146.87,146.87,0,0,0,.07,250.22a149.27,149.27,0,0,0,17,73.49l0,.07,0,.07a151.61,151.61,0,0,0,22.18,31.53l0,0,0,0c1.93,2.08,4.18,4.49,6.67,6.83s4.88,4.52,7.06,6.4,4.36,3.56,6.41,5.14l1,.8.39.3.41.28,3.94,2.75.11.08.11.08,2,1.35.09.06.09.06,1.33.88,2.5,1.65.28.19h0q.74.5,1.55,1l.71.4.06,0h0l.86.49,0,0,0,0,1.72,1,.05,0c2.36,1.35,5,2.88,7.95,4.3l.09,0c2.38,1.21,5.07,2.57,8,3.82l.16.07c2.41,1.07,5.13,2.28,8.07,3.37A179,179,0,0,0,166,408.92,182.38,182.38,0,0,0,206,404.46,185.26,185.26,0,0,0,296,355l.16-.16.16-.17.49-.51,4.74-4.93.36-.38.34-.39,4.9-5.63.13-.15.13-.15c1.45-1.72,2.74-3.38,4-5l1.07-1.37,0-.06,0-.06,1.15-1.49.26-.33.24-.35,1.23-1.74,0-.06,0-.06,1.55-2.24.9-1.3.08-.11.08-.11,2.19-3.24.06-.08.05-.08,1.44-2.18,1.43-2.17.34-.51.31-.53,1-1.68,1.33-2.32,0,0,0,0,3.4-6,.15-.27.14-.27c1-2,2-3.9,2.94-5.77l.34-.68.46-.92,1.1-2.21.17-.35.16-.36.7-1.56.69-1.54,0-.08,0-.08,2.57-5.85.15-.35.19-.43.17-.43,2.41-6.26,0-.07,0-.07,1.21-3.21.14-.36.12-.37q.51-1.55,1-3.08l.06-.18.06-.18.23-.7C347.83,266.78,363.1,227.11,360.17,177.49Zm-33.93,89.18c-.19.57-.37,1.13-.55,1.7q-.53,1.58-1.05,3.17l-1.18,3.14L321,281l-2.73,6.22-1.4,3.11-1.52,3.06c-1,2-2,4.08-3.1,6.11l-3.39,6-2.3,4-1.43,2.17-1.44,2.18-2.19,3.24-2.43,3.5-1.23,1.74-1.15,1.49c-1.54,2-3.05,3.94-4.66,5.86l-4.95,5.68-5.25,5.46a166.64,166.64,0,0,1-23.54,19.48A164.62,164.62,0,0,1,201.65,385a161.58,161.58,0,0,1-62.81,1.66,158.66,158.66,0,0,1-30.64-8.51c-2.49-.91-4.91-2-7.34-3.08s-4.8-2.24-7.17-3.43-4.68-2.47-7-3.78l-1.72-1-.86-.49c.61.34-1.32-.74-1.23-.71l-.31-.21-2.52-1.66-1.33-.88-2-1.35-3.94-2.75c-2.28-1.77-4.48-3.42-6.62-5.27S62,349.85,60,347.86s-4-4-5.88-6a131.64,131.64,0,0,1-19.24-27.37,129.56,129.56,0,0,1-14.78-63.69,123.82,123.82,0,0,1,10.67-47.2c1-2.47,2.25-4.85,3.46-7.21.58-1.19,1.25-2.34,1.9-3.5l2.32-4.07,1.68-2.54,1.07-1.6,1.35-2,1.37-1.94,1.3-1.67c.87-1.09,1.7-2.2,2.62-3.26A103.68,103.68,0,0,1,59.49,164a98.67,98.67,0,0,1,13.29-9.7,103.39,103.39,0,0,1,14.48-7.39,101.25,101.25,0,0,1,62-5,105,105,0,0,1,14.57,4.7,107.84,107.84,0,0,1,13.44,6.78c2,1.17.74.44,1.27.76l.3.2.6.42,1.19.83,2.39,1.66c.31.2,1,.75,1.57,1.18l1.74,1.37q1.73,1.38,3.41,2.79l.84.71c.26.24.47.46.71.69l1.37,1.38,2.71,2.76a34.35,34.35,0,0,1,2.53,2.9l2.41,3a80.53,80.53,0,0,1,13.35,26.75,79.37,79.37,0,0,1,2.71,28.68A78.47,78.47,0,0,1,209,256.25q-1.59,3-3.22,6l-.2.36s-.89,1.53-.59,1l-.38.55-.76,1.1-1.52,2.19c-1.53,2-3.25,4.16-4.9,6-1.67,1.62-3.24,3.31-5,4.78A63.23,63.23,0,0,1,169,290.9a61.85,61.85,0,0,1-25.21,2,59.79,59.79,0,0,1-22.71-7.73l-.64-.35-.8-.46-.25-.17-1-.68-1.94-1.35c-.82-.62-1.74-1.37-2.59-2.05a27.44,27.44,0,0,1-2.42-2.13,47.29,47.29,0,0,1-4-4.35l-1.82-2.29-1.6-2.42a47.12,47.12,0,0,1-7.34-20.86A47.59,47.59,0,0,1,99,227.51c.55-1.58,1.25-3.1,1.87-4.61s1.54-2.89,2.31-4.3c0,0,.45-.76.33-.55l.14-.21.29-.42.58-.83.58-.83a5.29,5.29,0,0,1,.35-.48l.42-.53,1.71-2.07c.57-.69,1.15-1.18,1.73-1.77a35.93,35.93,0,0,1,11.66-7.7l2.09-.84,2.14-.64A36.12,36.12,0,0,1,156,206.91a28.3,28.3,0,0,1,11.79,23.24,27.11,27.11,0,0,1-2.35,10.79,23.49,23.49,0,0,1-5.54,7.86,21.2,21.2,0,0,1-13.5,5.52,20.35,20.35,0,0,1-8.7-1.66,15.26,15.26,0,0,1-2-1l-.66-.36.7.28a15.38,15.38,0,0,0,2.09.74,19.54,19.54,0,0,0,8.44.57,18.93,18.93,0,0,0,11.35-6.31,19.84,19.84,0,0,0,3.8-7.15,22.18,22.18,0,0,0,.82-9,21.85,21.85,0,0,0-3.24-9.23,21,21,0,0,0-1.51-2.07l-.83-1-.93-.91a21.66,21.66,0,0,0-2-1.7c-.34-.27-.68-.44-1-.67l-.5-.33-.26-.17-.36-.18a26.36,26.36,0,0,0-16.82-2.85c-1,.22-1.95.39-2.91.68a24.41,24.41,0,0,0-2.83,1l-1.38.61-1.32.75a26.74,26.74,0,0,0-2.55,1.66,24.62,24.62,0,0,0-4.35,4.3,13,13,0,0,0-.91,1.19c-.23.38-.46.75-.7,1.11l-.19.27-.09.13-.11.22-.47.89-.47.9-.23.45-.12.23c-.2.36.14-.24.08-.11l-1.18,3.1c-.26,1.08-.62,2.13-.84,3.22a30.66,30.66,0,0,0,.24,13.32,32,32,0,0,0,2.3,6.37,30.69,30.69,0,0,0,3.77,5.65l1.1,1.29,1.24,1.17a25.58,25.58,0,0,0,2.61,2.17,7.63,7.63,0,0,0,1.23.8l1.18.77,2.1,1.1,1.05.55.26.14c-.9-.52-.13-.1-.27-.2l.43.16a36.09,36.09,0,0,0,14.33,2.89,35.28,35.28,0,0,0,26.05-11.64c.82-.88,1.48-1.92,2.26-2.84.56-.9.93-1.59,1.52-2.43l1.24-2.37.62-1.18.31-.59c.4-.72-.37.64-.27.42l.09-.23c.46-1.26.92-2.49,1.41-3.72A44.25,44.25,0,0,0,181.08,228a42,42,0,0,0-12.15-27.77l-1.39-1.3a10.5,10.5,0,0,0-1.43-1.24l-1.51-1.14-.74-.58c-.12-.09-.25-.21-.36-.28l-.31-.16c-.41-.22-.81-.44-1.2-.69l-.57-.37a4.34,4.34,0,0,0-.79-.48l-2.57-1.35-1.29-.68-.64-.34-.33-.17c.33.2-1.18-.67.65.39a63.45,63.45,0,0,0-7.85-2.71,58.48,58.48,0,0,0-8.08-1.44,51.65,51.65,0,0,0-31,6.77,49.74,49.74,0,0,0-6.42,4.52,43.16,43.16,0,0,0-5.54,5.4A46.66,46.66,0,0,0,93,210.53c-.36.52-.64,1.1-1,1.64-.15.26-.34.56-.46.8l-.27.61-2.14,4.33c.66-1.18.12-.19.25-.39l-.1.25-.2.5-.39,1c-.26.65-.55,1.3-.75,2-.45,1.34-.93,2.65-1.28,4a66,66,0,0,0-1.79,8.11,63.16,63.16,0,0,0-.29,16.29,61.71,61.71,0,0,0,11.2,29.24,59.59,59.59,0,0,0,10.33,11c1,.76,1.91,1.55,2.94,2.24s2,1.38,3,2,2.15,1.24,3.13,1.82q.57.24,1.12.5l1.81.91,2.69,1.33.34.17c.31.17-1.41-.8-.57-.35l.48.19,1,.37c1.27.51,2.51,1,3.81,1.43s2.54.9,3.84,1.23,2.55.76,3.86,1a76.45,76.45,0,0,0,44.8-2.9A73.32,73.32,0,0,0,202,285.24a71.33,71.33,0,0,0,8.73-9.7c.61-.88,1.23-1.75,1.85-2.6s1.12-1.79,1.69-2.66,1-1.83,1.56-2.72l.38-.66.2-.48c.13-.32.27-.62.41-.92l1.76-3.54,1.15-2.34.14-.29c-1.19,2.12-.28.47-.53.89l.16-.41.31-.81,1.28-3.2c.37-1.08.73-2.15,1.09-3.22l.55-1.59.45-1.61.91-3.18c.24-1.07.48-2.13.71-3.19l.37-1.58.27-1.59c.19-1,.38-2.09.56-3.14s.25-2.09.38-3.13l.2-1.55.1-1.55c.08-1,.16-2,.24-3.06a97.35,97.35,0,0,0-.22-11.93,88.63,88.63,0,0,0-4.3-21.58,92.25,92.25,0,0,0-8-17.78,88.9,88.9,0,0,0-19.73-23.29c-1.69-1.24-3.13-2.56-4.69-3.56l-2.17-1.55-2.12-1.32c-1.31-.9-2.64-1.59-3.81-2.26l-.85-.5a5.9,5.9,0,0,0-.74-.4c-.37-.14-.71-.28-1-.42l-8.19-4,64.23-112C393.76,112,326.24,266.67,326.24,266.67Z"/></g></g></svg>