<svg xmlns="http://www.w3.org/2000/svg" viewBox="0 0 455.57 378.15"><defs><style>.cls-1{fill:#f2f2f2;}.cls-2,.cls-5{fill:none;}.cls-2{stroke:#fc5bb4;stroke-linecap:round;stroke-miterlimit:10;stroke-width:10px;}.cls-3{fill:#0fd3cd;}.cls-4{fill:#fff;}</style></defs><title>logo-sponsored-co</title><g id="Layer_2" data-name="Layer 2"><g id="Layer_1-2" data-name="Layer 1"><g id="Thicc_Logo" data-name="Thicc Logo"><path class="cls-1" d="M407.51,29.07a12.49,12.49,0,0,0-7.25-2.3A14.28,14.28,0,0,0,394.57,28c-10.92,4.73-24,27.45-30.77,40.58-10.7,20.65-19.68,43.63-24.13,61.75a227.46,227.46,0,0,1-22.63,25l-.91.87,0,0,0,0c-15.27,15.26-21.42,16.45-22.93,16.45H293a2.92,2.92,0,0,1-.32-.39s-2.45-4,.87-19.26c15.91-20.34,32.28-47,48.68-79.26.72-1.42,3.4-7.18,5.61-13.12,2.44-6.56,6.53-17.55-1.4-23.32A12.24,12.24,0,0,0,339.21,35c-4.35,0-8.83,2.27-13.33,6.73-10.88,10.8-26.93,38.79-39,68.08A254.63,254.63,0,0,0,275.11,144a181.85,181.85,0,0,1-15.82,17.36,92.88,92.88,0,0,1-13,10.5c7.08-6.76,15-14.43,18.15-24.76,1.85-6,1.09-14.34-4.75-19.57a16.53,16.53,0,0,0-11-4.21c-5.65,0-11.52,2.73-17.46,8.12-6.75,6.13-11.46,15-14.41,27a73.58,73.58,0,0,0-2.77,15.3c-2,1.57-4.11,3.09-6.19,4.53l-.37.26a51.26,51.26,0,0,1-5.8,3.6A65.56,65.56,0,0,1,204,171.5c.62-2.21,1.2-4.28,1.58-6.23.1-.52.22-1.08.35-1.67,1.38-6.52,3.45-16.38-3.71-22.15a12.89,12.89,0,0,0-8.3-2.85,18.84,18.84,0,0,0-5.91,1c1-2.22,2-4.41,2.94-6.56a369.63,369.63,0,0,0,34.7-41.75c1.25-1.72,2.58-3.47,4-5.32C237,76.32,245.29,65.37,248,50.87c.89-4.79-2.09-13-9.83-15.43a14,14,0,0,0-4.14-.63c-7.46,0-14.85,5.85-24,19-9.65,13.89-21.73,36.69-35.89,67.76-5.34,5.32-10.66,10.15-16.24,14.76a334.37,334.37,0,0,1-50.08,34.33c-4.38-7.6-9.19-14.95-13.86-22.1-9-13.73-18.23-27.88-23.45-42.33-5.7-15.78-7.43-28.65-5.14-38.26C68.72,54.07,78.08,41,91.1,32.16A69.4,69.4,0,0,1,129.68,20,56.88,56.88,0,0,1,151.16,24c5.07,2.47,12.17,8.07,12.41,11.74.12,1.94-2.25,5.62-9.3,10.13a10,10,0,1,0,10.78,16.85C178,54.48,184.22,45,183.53,34.47c-1.12-17-20.25-26.84-24.07-28.63l-.05,0-.05,0-.22-.1-.06,0-.06,0A76.63,76.63,0,0,0,129.71,0,89.63,89.63,0,0,0,79.85,15.63C62.75,27.27,50.4,44.65,46,63.31,42.76,76.77,44.7,93.49,51.74,113c6,16.66,15.92,31.81,25.5,46.46,4.35,6.65,8.8,13.46,12.81,20.35-2.75,1.3-5.5,2.54-8.22,3.72l-1,.45c-16.38,7-33.31,14.32-48.8,24.81a120.19,120.19,0,0,0-12,9.17A75.53,75.53,0,0,0,8.58,230.21a44.88,44.88,0,0,0-7.67,16A34.76,34.76,0,0,0,3,268.2l.06.14C12.5,289.41,37.77,292.55,52,292.55a98.21,98.21,0,0,0,16.81-1.43c32-5.66,54.16-28.08,56.43-57.1a88.62,88.62,0,0,0-3.35-31.83,113.89,113.89,0,0,0-4.94-13.72,348.46,348.46,0,0,0,35.54-22.65c-2.24,4.59-4.3,8.92-6.23,13.11-.21.45-2.25,5.05-4.19,9.91-3.81,9.54-4.78,13.43-3,17.62a10.24,10.24,0,0,0,6.14,5.65,11.76,11.76,0,0,0,3.72.62c9,0,15.23-10.22,24.65-26.88.76-1.35,1.45-2.56,2-3.57s1.29-2.25,2-3.43l.08-.15c2-3.45,4.12-7.28,6.5-10.7-2.53,9.2-5.36,22,3.6,30.61l.13.11a16,16,0,0,0,8.76,4.26,17.07,17.07,0,0,0,2.49.2c8.1,0,15.68-5.29,19.76-8.14l.35-.24q1.78-1.24,3.56-2.54a23,23,0,0,0,6.88,3.69,17.73,17.73,0,0,0,5.58.84c10.34,0,23.5-7.27,37.66-20.67a23,23,0,0,0,3.5,7.86,20.2,20.2,0,0,0,14.88,8.68c.58,0,1.18.07,1.78.07,10.21,0,21.63-6.85,37-22.23l.78-.75c2-2,4.71-4.55,7.93-7.91,2.12,9.95,6.64,19.65,16,23.35a20.21,20.21,0,0,0,7.5,1.43c9.79,0,20.74-6.84,33.49-20.91a10,10,0,1,0-14.82-13.43c-12.32,13.61-17.74,14.3-18.7,14.3h-.13c-.55-.3-2.17-2.24-3.48-7.87a64.85,64.85,0,0,1-1.51-13.81c.27-1.8.62-3.75,1.06-5.81,16.21-21.26,32.25-47.89,47.67-79.18a107.19,107.19,0,0,0,4.41-10.41C411.68,45.47,415.47,34.72,407.51,29.07ZM105.29,232.46c-1.54,19.65-17.23,34.94-40,39a76.28,76.28,0,0,1-13.06,1.1c-15.9,0-27.46-4.6-30.91-12.29l0-.09a14.73,14.73,0,0,1-.93-9.33A25.18,25.18,0,0,1,24.74,242a55.89,55.89,0,0,1,8.45-9,100.42,100.42,0,0,1,10-7.65c13.92-9.43,30-16.33,45.49-23l1.07-.46c3.1-1.34,6.23-2.76,9.35-4.24a92,92,0,0,1,3.55,10.05A69,69,0,0,1,105.29,232.46Z"/><path class="cls-2" d="M388.35,159c-42.52,46.95-41.23-14.88-41.23-14.88,5.56-40,44.8-113.84,54.6-106.9,2.84,2-3.62,15.78-4.85,18.27-32.94,66.81-59.44,94-72.92,107.05l-.84.8c-13,13-30,26.72-38.56,14.8-16.16-22.59,44.05-141.4,56-132.71,2.81,2-6,21.35-7.24,23.83-53.83,105.9-91.74,120.06-100.5,117.17a14.31,14.31,0,0,1-8.45-8.07c-1.62-4,2.09-17.32,2.09-17.32,2-8.09,5.18-16.46,11.45-22.16,3.66-3.33,10.4-8.08,15.11-3.87,2.43,2.17,2.78,6.2,1.86,9.16-2.91,9.41-12.22,17.19-19,23.85a173.4,173.4,0,0,1-22.34,18.54c-4.27,3-13.68,9.78-18.83,4.82-6.69-6.44-.45-20.64,1-28.07,1.32-6.67,4.73-18.5-6.26-13.56-10.54,4.75-17,18-22.49,27.47-4.45,7.66-14.46,26.75-18.59,25.38-1.46-.49,6.43-18.42,6.93-19.5,6.85-14.82,14.3-29.36,21.86-43.82,54.16-122.62,61.13-91,61-90.26-2.75,14.69-13,25.87-20.64,36.41C201.92,107,184.85,127,164.31,144c-23.58,19.48-50.38,36.53-78.52,48.69-16.59,7.13-33.18,14.19-48.2,24.36a111,111,0,0,0-11,8.41,66.14,66.14,0,0,0-9.94,10.64,35,35,0,0,0-6,12.4,24.73,24.73,0,0,0,1.51,15.68l0,.09c8.45,18.85,37.69,20,54.86,17,25-4.42,46.13-21.55,48.21-48a79.17,79.17,0,0,0-3-28.3c-9.78-34.15-39.11-62.13-51.11-95.35-4.8-13.28-8.81-29.89-5.46-44C59.75,48.54,71.07,33.7,85.48,23.89c20.12-13.7,46.87-18.4,69.74-9,0,0,38.16,17.87,4.45,39.44"/><path class="cls-3" d="M240.18,181.41l-24.06,97.2H225L228.5,265h27.12L259,278.61h9l-24.2-97.2Zm-9.59,74.81,11.54-45.61,11.26,45.61Z"/><path class="cls-3" d="M328.76,189.34a11.9,11.9,0,0,1,2.78.14V181a11.86,11.86,0,0,0-2.78-.14,46.73,46.73,0,0,0-19.19,3.89,50.93,50.93,0,0,0-15.71,10.57A49,49,0,0,0,283.42,211a48.21,48.21,0,0,0,0,38A54.45,54.45,0,0,0,288,257.4a54.32,54.32,0,0,0,13.42,13.42,54.44,54.44,0,0,0,8.41,4.59,46,46,0,0,0,18.91,3.89,11.7,11.7,0,0,0,2.78-.14v-8.62h-2.78a37.76,37.76,0,0,1-16-3.33,38.5,38.5,0,0,1-12.93-8.75,40.41,40.41,0,0,1-8.62-12.91A39.2,39.2,0,0,1,288,230a38.49,38.49,0,0,1,3.34-15.83,41,41,0,0,1,21.83-21.65A39.42,39.42,0,0,1,328.76,189.34Z"/><polygon class="cls-3" points="402.04 181.41 390.63 181.41 360.18 217.7 360.18 181.41 351.42 181.41 351.42 278.61 360.18 278.61 360.18 236.89 395.22 278.61 405.58 278.61 405.58 277.36 363.52 227.3 402.04 181.41"/><path class="cls-3" d="M435.23,214.92q-7.33-11.12-7.33-16,0-9,9.32-9,4.17,0,9,4l-.14.14q.55,0,6.12-5.58-5.56-7.35-14-7.35a19.63,19.63,0,0,0-7,1.25,19.4,19.4,0,0,0-5.88,3.9,16.16,16.16,0,0,0-4.24,5.85,17.83,17.83,0,0,0-1.7,7.66q0,9.05,12.65,26.74l7.23,10.17q7.79,11.14,8.07,17.55a13.31,13.31,0,0,1-1.39,6.27,14,14,0,0,1-1.6,2.72,14.83,14.83,0,0,1-2,2.16,14,14,0,0,1-5.42,3.2,20.18,20.18,0,0,1-6.4,1.11q-8.48,0-15.3-6.81V274q8.48,5.15,16.69,5.15a24.3,24.3,0,0,0,9.73-1.81,21.25,21.25,0,0,0,12.24-12.1,24.48,24.48,0,0,0,1.67-9.18q0-10.57-13.15-30.45Z"/><path class="cls-3" d="M187.9,198.71v44.16h-22.8V181.41h-8.76v97.2h8.76v-27h22.8v27h8.76V203A16,16,0,0,1,187.9,198.71Z"/></g><path class="cls-4" d="M115.09,334.23h-5.21V341h-2.65V316.25h2.65v15.37h5.21V316.25h2.65V341h-2.65Z"/><path class="cls-4" d="M145.61,328.67a11.94,11.94,0,0,1-1,4.78,12.63,12.63,0,0,1-2.69,4,12.48,12.48,0,0,1-8.86,3.78,12.17,12.17,0,0,1-4.82-1,12.6,12.6,0,0,1-6.69-6.69,12.19,12.19,0,0,1-1-4.82,12.39,12.39,0,0,1,1-4.91,11.66,11.66,0,0,1,2.74-4,12.61,12.61,0,0,1,4-2.69,12.63,12.63,0,0,1,9.64,0,12.72,12.72,0,0,1,6.69,6.64A12.4,12.4,0,0,1,145.61,328.67Zm-20.8-5.51a9.82,9.82,0,0,0-1.69,5.51,8.6,8.6,0,0,0,.83,3.82,10.45,10.45,0,0,0,5.34,5.34,9.21,9.21,0,0,0,3.82.78,9.61,9.61,0,0,0,3.82-.78,10,10,0,0,0,3.17-2.17,11,11,0,0,0,2.17-3.17,9.19,9.19,0,0,0,.78-3.82,9.49,9.49,0,0,0-.78-3.78,11.59,11.59,0,0,0-2.08-3.17,11,11,0,0,0-3.17-2.17,9.18,9.18,0,0,0-3.91-.83,9.56,9.56,0,0,0-4.69,1.17A9.32,9.32,0,0,0,124.81,323.16Z"/><path class="cls-4" d="M146.35,336.36a6.31,6.31,0,0,0,4.21,2,4.08,4.08,0,0,0,1.35-.26,3.44,3.44,0,0,0,.65-.33l.61-.41a3.18,3.18,0,0,0,.87-1.17,3.25,3.25,0,0,0,.35-1.48q0-1.13-2-4.3l-1.82-2.52q-3.17-4.34-3.17-6.73a4.82,4.82,0,0,1,1.39-3.56,4.7,4.7,0,0,1,3.47-1.35,4.63,4.63,0,0,1,3.78,2l-1.74,1.61a3.57,3.57,0,0,0-2.3-1.09q-2.13,0-2.13,2,0,1.61,3.17,5.95,3.78,6.08,3.78,8.38a6.18,6.18,0,0,1-.48,2.34,5,5,0,0,1-1.3,1.87,5.77,5.77,0,0,1-2,1.3,6.49,6.49,0,0,1-2.47.48,7.88,7.88,0,0,1-4.26-1.39Z"/><path class="cls-4" d="M161.81,341V318.9h-4.17v-2.65h10.94v2.65h-4.13V341Z"/><path class="cls-4" d="M171,316.25H182v2.65h-8.29V323H180v2.61h-6.34v12.77H182V341H171Z"/><path class="cls-4" d="M184.56,316.3a4.08,4.08,0,0,1,.91,0,12.15,12.15,0,0,1,4.86,1,12.62,12.62,0,0,1,4,2.69,12.8,12.8,0,0,1,2.69,3.91,12.1,12.1,0,0,1,1,4.78,11.52,11.52,0,0,1-1,4.69,12.63,12.63,0,0,1-2.69,4,11.67,11.67,0,0,1-4,2.74,12.4,12.4,0,0,1-4.91,1h-.91Zm2.65,22a7.62,7.62,0,0,0,3.24-1.13,9.86,9.86,0,0,0,2.63-2.21,10.5,10.5,0,0,0,1.73-3,10,10,0,0,0,.6-3.39,9.32,9.32,0,0,0-.65-3.43A10.2,10.2,0,0,0,190.4,320a9.63,9.63,0,0,0-3.2-1.13Z"/><path class="cls-4" d="M211.26,316.25q5.82.91,5.82,5.73a4.93,4.93,0,0,1-1.56,4,8.56,8.56,0,0,1,1.56,1.17,9.41,9.41,0,0,1,1.26,1.74,12.58,12.58,0,0,1,.83,2,7.47,7.47,0,0,1-.39,5.25,8.23,8.23,0,0,1-1.87,2.56,8.44,8.44,0,0,1-2.87,1.69,10.58,10.58,0,0,1-3.6.61h-1.61V316.25Zm.13,8.94a3.16,3.16,0,0,0,2.17-.91,2.83,2.83,0,0,0,1-2.26,3.21,3.21,0,0,0-.91-2.21,3,3,0,0,0-2.21-.91Zm.09,13.16a5.15,5.15,0,0,0,2.17-.48,6.62,6.62,0,0,0,.93-.52,4.21,4.21,0,0,0,.8-.69,5.93,5.93,0,0,0,1.17-1.74,5.34,5.34,0,0,0,.39-2,4.8,4.8,0,0,0-.43-2.08,5.94,5.94,0,0,0-1.17-1.74,7.51,7.51,0,0,0-1.78-1.22,4.8,4.8,0,0,0-2.08-.43Z"/><path class="cls-4" d="M225.8,341V328.59l-8.38-12.33h3.17l6.53,9.6,6.49-9.6h3.17l-8.34,12.33V341Z"/><path class="cls-4" d="M67.28,318.27a3.09,3.09,0,0,0-.72,0,10.22,10.22,0,0,0-4,.83,10.61,10.61,0,0,0-5.65,5.61,10,10,0,0,0-.86,4.1,10.15,10.15,0,0,0,.83,4,10.46,10.46,0,0,0,2.23,3.34,10,10,0,0,0,3.35,2.26,9.77,9.77,0,0,0,4.14.86h.72v2.23a3,3,0,0,1-.72,0,11.92,11.92,0,0,1-4.9-1,14.15,14.15,0,0,1-2.18-1.19,11.35,11.35,0,0,1-1.89-1.58A11.23,11.23,0,0,1,56,335.86a14.07,14.07,0,0,1-1.19-2.18,12.48,12.48,0,0,1,0-9.83,12.7,12.7,0,0,1,2.7-4.07A13.2,13.2,0,0,1,61.59,317a12.09,12.09,0,0,1,5-1,3.13,3.13,0,0,1,.72,0Z"/><path class="cls-4" d="M92.23,328.78a12,12,0,0,1-1,4.93,13.18,13.18,0,0,1-2.73,4.07,13,13,0,0,1-4,2.74,12.07,12.07,0,0,1-5,1,11.89,11.89,0,0,1-4.89-1,14.09,14.09,0,0,1-2.18-1.19A14.09,14.09,0,0,1,69,335.86a14.14,14.14,0,0,1-1.19-2.18,12.51,12.51,0,0,1,0-9.83,12.71,12.71,0,0,1,2.7-4.07A13.17,13.17,0,0,1,74.54,317a12.63,12.63,0,0,1,9.89,0,12.75,12.75,0,0,1,6.79,6.8A12,12,0,0,1,92.23,328.78Zm-21.46-5.84a10.27,10.27,0,0,0-1,9.85A10.46,10.46,0,0,0,72,336.13a10,10,0,0,0,3.35,2.26,10.11,10.11,0,0,0,8.17,0,10.49,10.49,0,0,0,3.35-2.26,11,11,0,0,0,2.3-3.31,10.25,10.25,0,0,0,.83-4.06,10.43,10.43,0,0,0-.83-4.06,12.3,12.3,0,0,0-2.27-3.34,11.28,11.28,0,0,0-3.35-2.3,10.5,10.5,0,0,0-12.82,3.88Z"/><path class="cls-4" d="M104.65,328.64H94.1v-1.55h10.55Z"/><polygon class="cls-5" points="426.5 279.19 261.53 279.19 236.79 279.19 236.79 378.15 261.53 378.15 426.5 378.15 451.24 378.15 451.24 279.19 426.5 279.19"/><path class="cls-4" d="M286.27,303.93A24.74,24.74,0,1,0,311,328.67,24.74,24.74,0,0,0,286.27,303.93Zm11.35,35.68a1.54,1.54,0,0,1-2.12.51c-5.81-3.55-13.12-4.35-21.73-2.39a1.54,1.54,0,1,1-.69-3c9.42-2.15,17.51-1.23,24,2.76A1.54,1.54,0,0,1,297.61,339.62Zm3-6.74a1.93,1.93,0,0,1-2.65.64c-6.65-4.09-16.79-5.27-24.65-2.88a1.93,1.93,0,1,1-1.12-3.69c9-2.73,20.16-1.41,27.79,3.29A1.93,1.93,0,0,1,300.64,332.88Zm.26-7c-8-4.74-21.13-5.17-28.74-2.86a2.31,2.31,0,1,1-1.34-4.43c8.74-2.65,23.27-2.14,32.45,3.31a2.31,2.31,0,0,1-2.36,4Z"/><path class="cls-4" d="M328.84,326.77c-4.27-1-5-1.73-5-3.24s1.34-2.37,3.32-2.37a9.71,9.71,0,0,1,5.84,2.22.28.28,0,0,0,.21.05.28.28,0,0,0,.18-.11l2.09-2.94a.28.28,0,0,0-.05-.38,12.62,12.62,0,0,0-8.2-2.84c-4.61,0-7.83,2.77-7.83,6.73,0,4.25,2.78,5.75,7.58,6.91,4.09.94,4.78,1.73,4.78,3.14,0,1.56-1.39,2.53-3.64,2.53a9.81,9.81,0,0,1-6.8-2.81.29.29,0,0,0-.21-.07.28.28,0,0,0-.19.1l-2.34,2.78a.28.28,0,0,0,0,.39,13.94,13.94,0,0,0,9.42,3.61c5,0,8.18-2.72,8.18-6.92C336.16,330,334,328,328.84,326.77Z"/><path class="cls-4" d="M347.41,322.56a6.7,6.7,0,0,0-5.38,2.59v-2a.28.28,0,0,0-.28-.28h-3.82a.28.28,0,0,0-.28.28v21.74a.28.28,0,0,0,.28.28h3.82a.28.28,0,0,0,.28-.28v-6.86a6.87,6.87,0,0,0,5.38,2.43c4,0,8.05-3.08,8.05-9S351.41,322.56,347.41,322.56Zm3.61,9c0,3-1.85,5.09-4.49,5.09s-4.59-2.19-4.59-5.09,2-5.09,4.59-5.09S351,328.58,351,331.53Z"/><path class="cls-4" d="M365.85,322.56a9,9,0,1,0,9.16,9A9,9,0,0,0,365.85,322.56Zm0,14.1a4.86,4.86,0,0,1-4.81-5.12,4.75,4.75,0,0,1,4.75-5.06,4.88,4.88,0,0,1,4.84,5.13A4.76,4.76,0,0,1,365.85,336.66Z"/><path class="cls-4" d="M386,322.91h-4.21v-4.3a.28.28,0,0,0-.28-.28H377.7a.28.28,0,0,0-.28.28v4.3h-1.84a.28.28,0,0,0-.28.28v3.29a.28.28,0,0,0,.28.28h1.84v8.51c0,3.44,1.71,5.18,5.08,5.18a7,7,0,0,0,3.58-.89.28.28,0,0,0,.14-.24v-3.13a.28.28,0,0,0-.41-.25,4.82,4.82,0,0,1-2.25.54c-1.23,0-1.77-.56-1.77-1.81v-7.91H386a.28.28,0,0,0,.28-.28v-3.29A.28.28,0,0,0,386,322.91Z"/><path class="cls-4" d="M400.68,322.93v-.53c0-1.55.6-2.25,1.93-2.25a6.46,6.46,0,0,1,2.16.4.28.28,0,0,0,.37-.27v-3.22a.28.28,0,0,0-.2-.27,10.5,10.5,0,0,0-3.18-.46c-3.53,0-5.4,2-5.4,5.75v.81h-1.84a.28.28,0,0,0-.28.28v3.3a.28.28,0,0,0,.28.28h1.84v13.12a.28.28,0,0,0,.28.28h3.82a.28.28,0,0,0,.28-.28V326.76h3.57l5.47,13.12c-.62,1.38-1.23,1.65-2.07,1.65a4.41,4.41,0,0,1-2.11-.6.29.29,0,0,0-.22,0,.28.28,0,0,0-.17.15l-1.3,2.84a.28.28,0,0,0,.12.36,8.05,8.05,0,0,0,4.08,1c2.82,0,4.39-1.32,5.76-4.85l6.64-17.15a.28.28,0,0,0-.26-.38h-4a.28.28,0,0,0-.26.19l-4.08,11.65-4.47-11.66a.28.28,0,0,0-.26-.18Z"/><rect class="cls-4" x="388.07" y="322.91" width="4.39" height="17.25" rx="0.28" ry="0.28"/><circle class="cls-4" cx="390.29" cy="318.05" r="2.74"/><path class="cls-4" d="M423.79,328.27a2.7,2.7,0,1,1,2.71-2.71A2.68,2.68,0,0,1,423.79,328.27Zm0-5.13a2.43,2.43,0,1,0,2.41,2.42A2.41,2.41,0,0,0,423.81,323.14Zm.6,2.7.76,1.07h-.64l-.69-1h-.59v1h-.54v-2.83H424c.66,0,1.09.34,1.09.9A.84.84,0,0,1,424.4,325.84Zm-.45-1.27h-.7v.89h.7c.35,0,.56-.17.56-.45S424.3,324.57,423.95,324.57Z"/></g></g></svg>